<svg id="visual" viewBox="0 0 900 600" width="900" height="600" xmlns="http://www.w3.org/2000/svg" xmlns:xlink="http://www.w3.org/1999/xlink" version="1.1"><rect x="0" y="0" width="900" height="600" fill="#171c22"></rect><path d="M0 524L25 520C50 516 100 508 150 508C200 508 250 516 300 521.3C350 526.7 400 529.3 450 530.3C500 531.3 550 530.7 600 530.5C650 530.3 700 530.7 750 528C800 525.3 850 519.7 875 516.8L900 514L900 601L875 601C850 601 800 601 750 601C700 601 650 601 600 601C550 601 500 601 450 601C400 601 350 601 300 601C250 601 200 601 150 601C100 601 50 601 25 601L0 601Z" fill="#02522a"></path><path d="M0 550L25 545.7C50 541.3 100 532.7 150 532.3C200 532 250 540 300 544.2C350 548.3 400 548.7 450 550.7C500 552.7 550 556.3 600 553.7C650 551 700 542 750 540.2C800 538.3 850 543.7 875 546.3L900 549L900 601L875 601C850 601 800 601 750 601C700 601 650 601 600 601C550 601 500 601 450 601C400 601 350 601 300 601C250 601 200 601 150 601C100 601 50 601 25 601L0 601Z" fill="#169253"></path><path d="M0 581L25 577C50 573 100 565 150 564.2C200 563.3 250 569.7 300 569.5C350 569.3 400 562.7 450 562.3C500 562 550 568 600 569.5C650 571 700 568 750 569C800 570 850 575 875 577.5L900 580L900 601L875 601C850 601 800 601 750 601C700 601 650 601 600 601C550 601 500 601 450 601C400 601 350 601 300 601C250 601 200 601 150 601C100 601 50 601 25 601L0 601Z" fill="#2ad881"></path></svg>