<svg id="visual" viewBox="0 0 900 600" width="900" height="600" xmlns="http://www.w3.org/2000/svg" xmlns:xlink="http://www.w3.org/1999/xlink" version="1.1"><rect x="0" y="0" width="900" height="600" fill="#2ad881"></rect><path d="M0 531L37.5 524.7C75 518.3 150 505.7 225 502.3C300 499 375 505 450 512.3C525 519.7 600 528.3 675 528.3C750 528.3 825 519.7 862.5 515.3L900 511L900 601L862.5 601C825 601 750 601 675 601C600 601 525 601 450 601C375 601 300 601 225 601C150 601 75 601 37.5 601L0 601Z" fill="#02522a"></path><path d="M0 565L37.5 560.5C75 556 150 547 225 548.3C300 549.7 375 561.3 450 563.3C525 565.3 600 557.7 675 552.3C750 547 825 544 862.5 542.5L900 541L900 601L862.5 601C825 601 750 601 675 601C600 601 525 601 450 601C375 601 300 601 225 601C150 601 75 601 37.5 601L0 601Z" fill="#171c22"></path></svg>